<svg width="19" height="19" viewBox="0 0 19 19" fill="none" xmlns="http://www.w3.org/2000/svg">
<path d="M9.72231 2.07359L17.5842 17.3722C17.6696 17.5386 17.5489 17.7365 17.3618 17.7365H1.6382C1.45114 17.7365 1.33034 17.5386 1.41584 17.3722L9.27759 2.07359C9.37059 1.89261 9.6293 1.89261 9.72231 2.07359Z" stroke="currentColor" stroke-width="1.5"/>
<path d="M10.1152 7.09033L10.0391 13.2134H9.06055L8.97852 7.09033H10.1152ZM8.94336 15.0767C8.94336 14.9009 8.99609 14.7524 9.10156 14.6313C9.21094 14.5103 9.37109 14.4497 9.58203 14.4497C9.78906 14.4497 9.94727 14.5103 10.0566 14.6313C10.1699 14.7524 10.2266 14.9009 10.2266 15.0767C10.2266 15.2446 10.1699 15.3892 10.0566 15.5103C9.94727 15.6313 9.78906 15.6919 9.58203 15.6919C9.37109 15.6919 9.21094 15.6313 9.10156 15.5103C8.99609 15.3892 8.94336 15.2446 8.94336 15.0767Z" fill="currentColor"/>
</svg>
