<svg width="19" height="20" viewBox="0 0 19 20" fill="currentColor" xmlns="http://www.w3.org/2000/svg">
<path fill-rule="evenodd" clip-rule="evenodd" d="M9.5 3C5.35786 3 2 6.35786 2 10.5C2 14.6421 5.35786 18 9.5 18C13.6421 18 17 14.6421 17 10.5C17 6.35786 13.6421 3 9.5 3ZM8 0C7.01353 0 6.19386 0.714197 6.02987 1.65373C2.49947 3.03968 0 6.47795 0 10.5C0 15.7467 4.25329 20 9.5 20C14.7467 20 19 15.7467 19 10.5C19 6.47795 16.5005 3.03968 12.9701 1.65373C12.8061 0.714197 11.9865 0 11 0H8Z" fill="currentColor" fill-opacity="1"/>
<path fill-rule="evenodd" clip-rule="evenodd" d="M14.3905 6.31237C14.563 6.09673 14.5281 5.78209 14.3125 5.60958C14.0968 5.43708 13.7822 5.47204 13.6097 5.68767L9.86218 10.372L6.22372 8.5528C5.97673 8.42931 5.67639 8.52942 5.5529 8.77641C5.4294 9.0234 5.52951 9.32374 5.7765 9.44723L9.76789 11.4429C9.80598 11.463 9.84592 11.4776 9.88668 11.4871C9.9604 11.5043 10.0357 11.5042 10.1073 11.4884C10.1784 11.4729 10.2463 11.4418 10.3057 11.3959C10.3393 11.37 10.37 11.3395 10.3966 11.3048L14.3905 6.31237Z" fill="currentColor" fill-opacity="1"/>
</svg>
